<svg xmlns="http://www.w3.org/2000/svg" version="1.1" xmlns:xlink="http://www.w3.org/1999/xlink" xmlns:svgjs="http://svgjs.dev/svgjs" width="1000" height="106" viewBox="0 0 1000 106"><g transform="matrix(1,0,0,1,-0.6060601183357903,-0.41415545138578835)"><svg viewBox="0 0 396 42" data-background-color="#ffffff" preserveAspectRatio="xMidYMid meet" height="106" width="1000" xmlns="http://www.w3.org/2000/svg" xmlns:xlink="http://www.w3.org/1999/xlink"><g id="tight-bounds" transform="matrix(1,0,0,1,0.23999980686096478,0.16409932979436803)"><svg viewBox="0 0 395.52 41.671801340411236" height="41.671801340411236" width="395.52"><g><svg viewBox="0 0 618.8846888888891 65.2054" height="41.671801340411236" width="395.52"><g><svg viewBox="0 0 618.8846888888891 65.2054" height="65.2054" width="618.8846888888891"><g id="textblocktransform"><svg viewBox="0 0 618.8846888888891 65.2054" height="65.2054" width="618.8846888888891" id="textblock"><g><svg viewBox="0 0 618.8846888888891 65.2054" height="65.2054" width="618.8846888888891"><g><svg><g></g><g></g></svg></g><g><svg><g><svg></svg></g><g></g></svg></g><g id="text-0"><svg viewBox="0 0 618.8846888888891 65.2054" height="65.2054" width="618.8846888888891"><g transform="matrix(1,0,0,1,0,12.452699999999997)"><svg width="321.75000000000006" viewBox="0.699999988079071 -39.599998474121094 321.72998046875 40.29999923706055" height="40.300000000000004" data-palette-color="#e363aa"><path d="M38.3-38.9L38.3-26.8 29.7-26.8 29.7-30.7 26.5-30.7 26.5-8.2 30-8.2 30 0 9 0 9-8.2 12.5-8.2 12.5-30.7 9.3-30.7 9.3-26.8 0.7-26.8 0.7-38.9 38.3-38.9ZM80-38.9L80-30.7 77.5-30.7 77.5-8.2 80-8.2 80 0 61.1 0 61.1-8.2 63.5-8.2 63.5-16.45 56.5-16.45 56.5-8.2 58.9-8.2 58.9 0 40 0 40-8.2 42.5-8.2 42.5-30.7 40-30.7 40-38.9 58.9-38.9 58.9-30.7 56.5-30.7 56.5-23.1 63.5-23.1 63.5-30.7 61.1-30.7 61.1-38.9 80-38.9ZM115.75 0L82 0 82-8.2 84.5-8.2 84.5-30.7 82-30.7 82-38.9 115.75-38.9 115.75-23.8 104.55-23.8 104.55-30.7 98.5-30.7 98.5-22.8 102.9-22.8 102.9-17.1 98.5-17.1 98.5-8.2 104.55-8.2 104.55-16.1 115.75-16.1 115.75 0ZM187.79-38.9L187.79-30.7 185.29-30.7 185.29-8.2 187.79-8.2 187.79 0 168.89 0 168.89-8.2 171.29-8.2 171.29-25.7 162.79 0 155.39 0 146.64-25.45 146.64-8.2 149.04-8.2 149.04 0 132.64 0 132.64-8.2 135.14-8.2 135.14-30.7 132.64-30.7 132.64-38.9 155.54-38.9 160.74-23.3 165.74-38.9 187.79-38.9ZM208.59 0.7Q199.44 0.7 194.46-4.1 189.49-8.9 189.49-19.45L189.49-19.45Q189.49-30 194.46-34.8 199.44-39.6 208.59-39.6L208.59-39.6Q217.74-39.6 222.71-34.8 227.69-30 227.69-19.45L227.69-19.45Q227.69-8.9 222.71-4.1 217.74 0.7 208.59 0.7L208.59 0.7ZM208.59-8.2Q210.29-8.2 211.14-9.1 211.99-10 211.99-11.9L211.99-11.9 211.99-27Q211.99-28.9 211.14-29.8 210.29-30.7 208.59-30.7L208.59-30.7Q206.89-30.7 206.04-29.8 205.19-28.9 205.19-27L205.19-27 205.19-11.9Q205.19-9.95 206.04-9.08 206.89-8.2 208.59-8.2L208.59-8.2ZM249.39-30.7L249.39-38.9 266.09-38.9 266.09-30.7 264.09-30.7 255.14 0 238.94 0 229.99-30.7 227.99-30.7 227.99-38.9 247.19-38.9 247.19-30.7 244.59-30.7 248.04-13.95 248.54-13.95 251.99-30.7 249.39-30.7ZM286.68 0L267.68 0 267.68-8.2 270.18-8.2 270.18-30.7 267.68-30.7 267.68-38.9 286.68-38.9 286.68-30.7 284.18-30.7 284.18-8.2 286.68-8.2 286.68 0ZM322.43 0L288.68 0 288.68-8.2 291.18-8.2 291.18-30.7 288.68-30.7 288.68-38.9 322.43-38.9 322.43-23.8 311.23-23.8 311.23-30.7 305.18-30.7 305.18-22.8 309.58-22.8 309.58-17.1 305.18-17.1 305.18-8.2 311.23-8.2 311.23-16.1 322.43-16.1 322.43 0Z" opacity="1" transform="matrix(1,0,0,1,0,0)" fill="#e363aa" class="undefined-p-0"></path></svg></g><g><svg xmlns="http://www.w3.org/2000/svg" xmlns:xlink="http://www.w3.org/1999/xlink" version="1.1" x="337.1446000000001" y="0" viewBox="0.5 28.5 22 18" enable-background="new 0.5 24.5 24 24" xml:space="preserve" height="65.2054" width="79.69548888888889" class="icon-s-0" data-fill-palette-color="accent" id="s-0"><path d="M0.5 28.5v18h22v-18H0.5zM4.5 44.5h-2v-2h2V44.5zM4.5 40.5h-2v-2h2V40.5zM4.5 36.5h-2v-2h2V36.5zM4.5 32.5h-2v-2h2V32.5zM16.5 44.5h-10v-14h10V44.5zM20.5 44.5h-2v-2h2V44.5zM20.5 40.5h-2v-2h2V40.5zM20.5 36.5h-2v-2h2V36.5zM20.5 32.5h-2v-2h2V32.5z" fill="#f8db21" data-fill-palette-color="accent"></path></svg></g><g transform="matrix(1,0,0,1,432.234688888889,12.452699999999993)"><svg width="186.65000000000006" viewBox="0.4000000059604645 -39.599998474121094 186.63999938964844 40.29999923706055" height="40.30000000000001" data-palette-color="#e363aa"><path d="M16.5 0.7Q11.7 0.7 7.43-0.13 3.15-0.95 0.85-2L0.85-2 0.85-11.9 11.85-11.9Q11.85-10.35 12.55-9.65 13.25-8.95 15.1-8.95L15.1-8.95Q16.65-8.95 17.32-9.43 18-9.9 18-10.85L18-10.85Q18-11.65 17.35-12.23 16.7-12.8 15.1-13.4L15.1-13.4 10.8-14.9Q5.25-17 2.83-19.85 0.4-22.7 0.4-27.55L0.4-27.55Q0.4-33.45 4.28-36.52 8.15-39.6 17.2-39.6L17.2-39.6Q21.55-39.6 25.38-38.73 29.2-37.85 31.55-36.4L31.55-36.4 31.55-27.45 21.55-27.45Q21.55-29.95 18.45-29.95L18.45-29.95Q16.95-29.95 16.32-29.58 15.7-29.2 15.7-28.25L15.7-28.25Q15.7-27.4 16.43-26.9 17.15-26.4 18.8-25.85L18.8-25.85 23.15-24.35Q28.45-22.55 30.88-19.68 33.3-16.8 33.3-12.15L33.3-12.15Q33.3-5.8 29.03-2.55 24.75 0.7 16.5 0.7L16.5 0.7ZM72-38.9L72-26.8 63.4-26.8 63.4-30.7 60.2-30.7 60.2-8.2 63.7-8.2 63.7 0 42.7 0 42.7-8.2 46.2-8.2 46.2-30.7 43-30.7 43-26.8 34.4-26.8 34.4-38.9 72-38.9ZM92.5 0.7Q83.35 0.7 78.37-4.1 73.4-8.9 73.4-19.45L73.4-19.45Q73.4-30 78.37-34.8 83.35-39.6 92.5-39.6L92.5-39.6Q101.65-39.6 106.62-34.8 111.6-30 111.6-19.45L111.6-19.45Q111.6-8.9 106.62-4.1 101.65 0.7 92.5 0.7L92.5 0.7ZM92.5-8.2Q94.2-8.2 95.05-9.1 95.9-10 95.9-11.9L95.9-11.9 95.9-27Q95.9-28.9 95.05-29.8 94.2-30.7 92.5-30.7L92.5-30.7Q90.8-30.7 89.95-29.8 89.1-28.9 89.1-27L89.1-27 89.1-11.9Q89.1-9.95 89.95-9.08 90.8-8.2 92.5-8.2L92.5-8.2ZM113.29 0L113.29-8.2 115.79-8.2 115.79-30.7 113.29-30.7 113.29-38.9 136.24-38.9Q142.69-38.9 146.09-36.25 149.49-33.6 149.49-27.65L149.49-27.65Q149.49-24.3 148.14-21.85 146.79-19.4 144.29-18.45L144.29-18.45 144.34-17.95Q149.14-17.2 149.14-12.05L149.14-12.05 149.14-8.2 151.49-8.2 151.49 0 135.64 0 135.64-11.75Q135.64-13.7 135.07-14.7 134.49-15.7 133.27-16.05 132.04-16.4 129.79-16.4L129.79-16.4 129.79-8.2 133.09-8.2 133.09 0 113.29 0ZM129.79-22.5L132.49-22.5Q133.94-22.5 134.67-23.28 135.39-24.05 135.39-25.7L135.39-25.7 135.39-27.5Q135.39-29.15 134.67-29.93 133.94-30.7 132.49-30.7L132.49-30.7 129.79-30.7 129.79-22.5ZM187.04 0L153.29 0 153.29-8.2 155.79-8.2 155.79-30.7 153.29-30.7 153.29-38.9 187.04-38.9 187.04-23.8 175.84-23.8 175.84-30.7 169.79-30.7 169.79-22.8 174.19-22.8 174.19-17.1 169.79-17.1 169.79-8.2 175.84-8.2 175.84-16.1 187.04-16.1 187.04 0Z" opacity="1" transform="matrix(1,0,0,1,0,0)" fill="#e363aa" class="undefined-p-1"></path></svg></g></svg></g></svg></g></svg></g></svg></g></svg></g><defs></defs></svg><rect width="395.52" height="41.671801340411236" fill="none" stroke="none" visibility="hidden"></rect></g></svg></g></svg>